<svg width="34" height="34" viewBox="0 0 34 34" fill="none" xmlns="http://www.w3.org/2000/svg">
<g id="Font Awesome Icon">
<path id="Vector" d="M15.9402 30.495C8.13608 19.1813 6.6875 18.0202 6.6875 13.8623C6.6875 8.16685 11.3045 3.5498 17 3.5498C22.6955 3.5498 27.3125 8.16685 27.3125 13.8623C27.3125 18.0202 25.8639 19.1813 18.0598 30.495C17.5477 31.2348 16.4523 31.2347 15.9402 30.495ZM17 18.1592C19.3731 18.1592 21.2969 16.2354 21.2969 13.8623C21.2969 11.4892 19.3731 9.56543 17 9.56543C14.6269 9.56543 12.7031 11.4892 12.7031 13.8623C12.7031 16.2354 14.6269 18.1592 17 18.1592Z" fill="#381805"/>
</g>
</svg>
