<svg width="34" height="34" viewBox="0 0 34 34" fill="none" xmlns="http://www.w3.org/2000/svg">
<g id="Font Awesome Icon">
<path id="Vector" d="M23.875 20.7373C22.6607 20.7373 21.5446 21.1573 20.6636 21.8596L15.159 18.4192C15.322 17.6818 15.322 16.9177 15.159 16.1804L20.6636 12.74C21.5446 13.4423 22.6607 13.8623 23.875 13.8623C26.7227 13.8623 29.0312 11.5538 29.0312 8.70605C29.0312 5.85835 26.7227 3.5498 23.875 3.5498C21.0273 3.5498 18.7188 5.85835 18.7188 8.70605C18.7188 9.09052 18.7612 9.46499 18.841 9.82544L13.3364 13.2658C12.4554 12.5635 11.3393 12.1436 10.125 12.1436C7.2773 12.1436 4.96875 14.4521 4.96875 17.2998C4.96875 20.1475 7.2773 22.4561 10.125 22.4561C11.3393 22.4561 12.4554 22.0361 13.3364 21.3338L18.841 24.7742C18.7596 25.1417 18.7186 25.5171 18.7188 25.8936C18.7188 28.7413 21.0273 31.0498 23.875 31.0498C26.7227 31.0498 29.0312 28.7413 29.0312 25.8936C29.0312 23.0459 26.7227 20.7373 23.875 20.7373Z" fill="#381805"/>
</g>
</svg>
