<svg width="52" height="52" viewBox="0 0 52 52" fill="none" xmlns="http://www.w3.org/2000/svg">
	<g id="&#229;&#156;&#150;&#229;&#177;&#164; 2">
		<g id="&#232;&#188;&#184;&#229;&#135;&#186;">
			<path id="Vector"
				d="M33.5499 0.0493164C34.4927 1.20208 35.71 2.09955 37.0899 2.65932C38.0323 3.03706 38.8842 3.60955 39.5899 4.33932C39.8419 4.65925 40.0756 4.99311 40.2899 5.33932C39.7441 5.72767 39.2802 6.21996 38.925 6.78797C38.5698 7.35597 38.3302 7.98851 38.2199 8.64932C38.0799 9.43932 38.0599 10.2393 37.9599 11.0293C37.8468 12.4177 37.6632 13.7995 37.4099 15.1693C37.2675 15.8802 36.9198 16.5338 36.4099 17.0493C35.1908 18.288 34.4594 19.9248 34.3499 21.6593C34.0846 24.3743 33.5417 27.055 32.7299 29.6593C31.4499 33.4693 29.7799 37.1493 26.8699 39.8893C25.911 40.8169 25.1663 41.9427 24.6878 43.1881C24.2094 44.4335 24.0087 45.7683 24.0999 47.0993C24.0999 47.8693 24.1699 48.6393 24.0999 49.3993C24.1115 49.6304 24.0744 49.8614 23.9909 50.0772C23.9074 50.293 23.7795 50.4888 23.6154 50.652C23.4513 50.8151 23.2547 50.9419 23.0384 51.0242C22.8221 51.1064 22.591 51.1422 22.3599 51.1293C21.4099 51.1293 20.9999 50.7693 20.9099 49.8093C20.8566 48.901 20.7531 47.9963 20.5999 47.0993C20.4798 46.4273 20.1987 45.7943 19.7808 45.2545C19.3628 44.7147 18.8204 44.284 18.1999 43.9993C17.0255 43.5161 16.0322 42.6767 15.3599 41.5993C14.4399 39.9293 13.3599 38.3093 12.6199 36.5993C11.4099 33.8993 11.6199 31.0493 12.1299 28.1993C12.8958 24.5592 14.4001 21.1149 16.5499 18.0793C19.1399 14.3393 21.7899 10.6493 24.6099 7.07932C24.8297 6.80992 25.0207 6.51834 25.1799 6.20932C25.5328 5.54597 26.0157 4.96055 26.5999 4.48806C27.1841 4.01556 27.8575 3.66568 28.5799 3.45932C29.3199 3.20932 30.0499 2.93932 30.7699 2.63932C31.9901 2.15756 32.9831 1.23241 33.5499 0.0493164Z"
				stroke="#381805" stroke-width="2.11" stroke-linecap="round" stroke-linejoin="round" />
			<path id="Vector_2"
				d="M26.0002 14.4193C26.0002 19.5693 21.5202 27.6393 18.1202 27.6393C15.0502 27.6393 10.2402 19.1793 10.2402 14.4193C10.2402 10.4893 12.3102 5.75928 18.1202 5.75928C23.5802 5.75928 26.0002 10.4893 26.0002 14.4193Z"
				fill="white" stroke="#F8D208" stroke-width="1.6" stroke-linecap="round" stroke-linejoin="round" />
			<path id="Vector_3"
				d="M18.1201 16.9394C19.9371 16.9394 21.4101 15.4664 21.4101 13.6494C21.4101 11.8324 19.9371 10.3594 18.1201 10.3594C16.3031 10.3594 14.8301 11.8324 14.8301 13.6494C14.8301 15.4664 16.3031 16.9394 18.1201 16.9394Z"
				fill="white" stroke="#F8D208" stroke-width="1.6" stroke-linecap="round" stroke-linejoin="round" />
		</g>
	</g>
</svg>